<?xml version="1.0" encoding="UTF-8"?> <svg xmlns="http://www.w3.org/2000/svg" xmlns:xlink="http://www.w3.org/1999/xlink" viewBox="0 0 521.09 539.91"><defs><style>.cls-1{fill:url(#Degradado_sin_nombre_21-3);}.cls-1,.cls-2,.cls-3,.cls-4,.cls-5{mix-blend-mode:multiply;}.cls-2{fill:url(#Degradado_sin_nombre_21-4);}.cls-3{fill:url(#Degradado_sin_nombre_21-2);}.cls-4{fill:url(#Degradado_sin_nombre_21-5);}.cls-5{fill:url(#Degradado_sin_nombre_21);}.cls-6{isolation:isolate;}</style><linearGradient id="Degradado_sin_nombre_21" x1="38.57" y1="1188.35" x2="38.57" y2="1187.29" gradientTransform="translate(-5036.92 163014.64) scale(138 -137)" gradientUnits="userSpaceOnUse"><stop offset="0" stop-color="#b4c6fc"></stop><stop offset="1" stop-color="#f1f5f9"></stop></linearGradient><linearGradient id="Degradado_sin_nombre_21-2" x1="38.46" y1="1187.66" x2="38.46" y2="1186.6" gradientTransform="translate(-7624.06 236570.47) scale(201 -199)" xlink:href="#Degradado_sin_nombre_21"></linearGradient><linearGradient id="Degradado_sin_nombre_21-3" x1="39.75" y1="1189.53" x2="39.75" y2="1188.48" xlink:href="#Degradado_sin_nombre_21"></linearGradient><linearGradient id="Degradado_sin_nombre_21-4" x1="37.24" y1="1187.01" x2="37.24" y2="1185.95" xlink:href="#Degradado_sin_nombre_21"></linearGradient><linearGradient id="Degradado_sin_nombre_21-5" x1="39.59" y1="1188.8" x2="39.59" y2="1187.74" gradientTransform="translate(-7624.06 236570.47) scale(201 -199)" xlink:href="#Degradado_sin_nombre_21"></linearGradient></defs><g class="cls-6"><g id="Layer_2"><g id="Capa_1"><path id="Shape" class="cls-5" d="M220.6,310.63l93.06-92.38c10.36-10.28,27.16-10.28,37.52,0,10.36,10.29,10.36,26.96,0,37.25h0l-93.05,92.38c-10.36,10.29-27.16,10.29-37.52,0-10.36-10.29-10.36-26.96,0-37.24h0"></path><path id="Shape-2" class="cls-3" d="M155.95,246.05l11.92-11.91c10.29-10.29,26.96-10.29,37.24,0,10.28,10.28,10.28,26.95,0,37.24h0l-11.92,11.92c-10.28,10.28-26.96,10.28-37.24,0-10.28-10.28-10.29-26.95,0-37.24,0,0,0,0,0,0M7.77,392.16l93.06-92.38c10.36-10.28,27.16-10.28,37.52,0,10.36,10.29,10.36,26.96,0,37.25h0l-93.05,92.38c-10.36,10.29-27.16,10.29-37.52,0-10.36-10.29-10.36-26.96,0-37.24h0"></path><path id="Shape-3" class="cls-1" d="M382.74,148.49l93.06-92.38c10.36-10.28,27.16-10.28,37.52,0,10.36,10.29,10.36,26.96,0,37.25h0l-93.05,92.38c-10.36,10.29-27.16,10.29-37.52,0-10.36-10.29-10.36-26.96,0-37.24h0"></path><path id="Shape-4" class="cls-2" d="M36.28,494.95l93.06-92.38c10.36-10.28,27.16-10.28,37.52,0,10.36,10.29,10.36,26.96,0,37.25h0l-93.05,92.38c-10.36,10.29-27.16,10.29-37.52,0-10.36-10.29-10.36-26.96,0-37.24h0"></path><path id="Shape-5" class="cls-4" d="M382.37,19.63l11.92-11.91c10.29-10.29,26.96-10.29,37.24,0,10.28,10.28,10.28,26.95,0,37.24h0l-11.92,11.92c-10.28,10.28-26.96,10.28-37.24,0-10.28-10.28-10.29-26.95,0-37.24,0,0,0,0,0,0M234.19,165.74l93.06-92.38c10.36-10.28,27.16-10.28,37.52,0,10.36,10.29,10.36,26.96,0,37.25h0l-93.05,92.38c-10.36,10.29-27.16,10.29-37.52,0-10.36-10.29-10.36-26.96,0-37.24h0"></path></g></g></g></svg> 