<?xml version="1.0" encoding="UTF-8"?> <svg xmlns="http://www.w3.org/2000/svg" id="Layer_2" viewBox="0 0 108.86 108.86"><defs><style>.cls-1{fill:#fff;}.cls-2{fill:#bfe35f;}</style></defs><g id="Capa_1"><g id="Capa_2"><g id="Capa_1-2"><g id="Capa_2-2"><g id="Capa_1-2-2"><circle class="cls-2" cx="54.43" cy="54.43" r="54.43"></circle><path class="cls-1" d="M47.23,34.19c.59,.42,1.41,.28,1.83-.31h0c2.16-3.07,6.39-3.8,9.46-1.65,1.09,.77,1.93,1.84,2.42,3.09l-.19-.1c-.64-.34-1.43-.09-1.77,.55-.32,.61-.11,1.36,.47,1.72l.03,.02,2.6,1.43c.54,.29,1.2,.17,1.61-.28l2.03-2.3c.48-.54,.43-1.37-.11-1.85-.54-.48-1.37-.43-1.85,.11h0l-.21,.24c-1.62-4.94-6.93-7.63-11.87-6.02-1.93,.63-3.6,1.87-4.77,3.53-.42,.59-.28,1.41,.32,1.82h0Z"></path><path class="cls-1" d="M43.58,41.06c.54,.47,1.37,.42,1.85-.11l.23-.26c1.61,4.94,6.91,7.65,11.86,6.05,2.02-.65,3.75-1.97,4.93-3.73,.41-.6,.25-1.41-.35-1.82-.58-.4-1.38-.26-1.8,.31l-.04,.05c-2.08,3.12-6.3,3.97-9.42,1.89-1.16-.77-2.05-1.87-2.56-3.17l.16,.09c.63,.35,1.43,.12,1.78-.52s.12-1.43-.52-1.78h0l-2.44-1.35c-.55-.39-1.31-.3-1.76,.2l-2.03,2.3c-.48,.54-.43,1.37,.11,1.85h0Z"></path><path class="cls-1" d="M44.65,54.27h19.63c.72,0,1.31-.59,1.31-1.31s-.59-1.31-1.31-1.31h-19.63c-.72,0-1.31,.59-1.31,1.31s.59,1.31,1.31,1.31Z"></path><path class="cls-1" d="M58.48,58.85h-13.82c-.72,0-1.31,.59-1.31,1.31s.59,1.31,1.31,1.31h13.82c.72,0,1.31-.59,1.31-1.31s-.59-1.31-1.31-1.31Z"></path><path class="cls-1" d="M65.5,59.66c-.28-.67-1.04-.99-1.71-.71-.67,.28-.99,1.04-.71,1.71,.28,.67,1.04,.99,1.71,.71h0c.66-.28,.98-1.04,.71-1.71Z"></path><path class="cls-1" d="M81.11,31.4h-7.36v-8.29c0-.72-.59-1.31-1.31-1.31H36.42c-.72,0-1.31,.59-1.31,1.31v8.29h-7.37c-2.18,0-3.95,1.77-3.96,3.96v38.21h0c0,2.18,1.77,3.95,3.96,3.96h18.82l-.72,6.18c-.16,1.43-1.38,2.52-2.82,2.52h-1.7c-.72,0-1.31,.59-1.31,1.31s.59,1.31,1.31,1.31h26.29c.72,0,1.31-.59,1.31-1.31s-.59-1.31-1.31-1.31h-1.71c-1.44,0-2.66-1.08-2.82-2.52h0l-.72-6.17h18.73c2.19,0,3.96-1.77,3.96-3.96h0V35.35c0-2.18-1.78-3.95-3.96-3.95Zm-43.37-6.98h33.39v42.41H37.73V24.41Zm-11.32,10.94c0-.74,.6-1.33,1.34-1.33h7.37v32.81h-8.7v-31.48Zm21.28,50.87c.41-.68,.67-1.44,.76-2.23l.76-6.48h10.53l.76,6.48c.09,.79,.35,1.55,.76,2.23h-13.57Zm34.75-12.66c0,.74-.6,1.34-1.34,1.34H27.75c-.74,0-1.34-.6-1.34-1.34v-4.11h56.04v4.11Zm0-6.73h-8.7V34.02h7.36c.74,0,1.34,.6,1.34,1.34v31.47Z"></path></g></g></g></g></g></svg> 