<?xml version="1.0" encoding="UTF-8"?> <svg xmlns="http://www.w3.org/2000/svg" xmlns:xlink="http://www.w3.org/1999/xlink" viewBox="0 0 275.15 307.9"><defs><style>.cls-1{clip-path:url(#clippath);}.cls-2{mix-blend-mode:multiply;}.cls-3{clip-path:url(#clippath-1);}.cls-4{fill-rule:evenodd;}.cls-4,.cls-5{fill:url(#Degradado_sin_nombre_21);}.cls-5{clip-rule:evenodd;}.cls-6{isolation:isolate;}.cls-7{fill:url(#Degradado_sin_nombre_21-3);}.cls-8{fill:url(#Degradado_sin_nombre_21-4);}.cls-9{fill:url(#Degradado_sin_nombre_21-2);}</style><linearGradient id="Degradado_sin_nombre_21" x1="0" y1="153.95" x2="275.15" y2="153.95" gradientTransform="matrix(1, 0, 0, 1, 0, 0)" gradientUnits="userSpaceOnUse"><stop offset="0" stop-color="#b4c6fc"></stop><stop offset="1" stop-color="#f1f5f9"></stop></linearGradient><clipPath id="clippath"><path class="cls-5" d="M213.66,102.03c-4.56-6.43-10.97-11.77-19.25-16-8.29-4.23-17.19-6.34-26.71-6.34-23.6,0-41.92,6.85-54.97,20.53-13.04,13.69-19.57,31.6-19.57,53.73s6.52,40.05,19.57,53.73c13.04,13.69,31.37,20.53,54.97,20.53,10.34,0,19.25-2.21,26.71-6.64,7.45-4.42,13.87-9.66,19.25-15.7l61.49,62.79c-14.5,14.49-31.58,24.66-51.24,30.49-19.67,5.83-38.41,8.76-56.21,8.76-23.2,0-45.03-3.62-65.53-10.87-20.5-7.24-38.3-17.6-53.41-31.09-15.12-13.48-27.02-29.68-35.72-48.6C4.35,198.43,0,177.3,0,153.95s4.35-44.47,13.04-63.39c8.7-18.91,20.59-35.11,35.72-48.6,15.11-13.48,32.92-23.85,53.41-31.09C122.67,3.62,144.5,0,167.7,0c17.8,0,36.54,2.92,56.21,8.75,19.66,5.84,36.74,16,51.24,30.49l-61.49,62.79Z"></path></clipPath><linearGradient id="Degradado_sin_nombre_21-2" x1="-786.13" y1="2751.46" x2="11791.95" y2="2751.46" xlink:href="#Degradado_sin_nombre_21"></linearGradient><linearGradient id="Degradado_sin_nombre_21-3" x1="-786.13" y1="2751.46" x2="11791.95" y2="2751.46" xlink:href="#Degradado_sin_nombre_21"></linearGradient><clipPath id="clippath-1"><rect class="cls-7" x="-786.13" y="-786.13" width="12578.08" height="7075.17"></rect></clipPath><linearGradient id="Degradado_sin_nombre_21-4" x1="-32.76" y1="153.95" x2="307.9" y2="153.95" xlink:href="#Degradado_sin_nombre_21"></linearGradient></defs><g class="cls-6"><g id="Layer_2"><g id="Capa_1"><g class="cls-2"><path class="cls-4" d="M213.66,102.03c-4.56-6.43-10.97-11.77-19.25-16-8.29-4.23-17.19-6.34-26.71-6.34-23.6,0-41.92,6.85-54.97,20.53-13.04,13.69-19.57,31.6-19.57,53.73s6.52,40.05,19.57,53.73c13.04,13.69,31.37,20.53,54.97,20.53,10.34,0,19.25-2.21,26.71-6.64,7.45-4.42,13.87-9.66,19.25-15.7l61.49,62.79c-14.5,14.49-31.58,24.66-51.24,30.49-19.67,5.83-38.41,8.76-56.21,8.76-23.2,0-45.03-3.62-65.53-10.87-20.5-7.24-38.3-17.6-53.41-31.09-15.12-13.48-27.02-29.68-35.72-48.6C4.35,198.43,0,177.3,0,153.95s4.35-44.47,13.04-63.39c8.7-18.91,20.59-35.11,35.72-48.6,15.11-13.48,32.92-23.85,53.41-31.09C122.67,3.62,144.5,0,167.7,0c17.8,0,36.54,2.92,56.21,8.75,19.66,5.84,36.74,16,51.24,30.49l-61.49,62.79Z"></path><g class="cls-1"><g><rect class="cls-9" x="-786.13" y="-786.13" width="12578.08" height="7075.17"></rect><g class="cls-3"><rect class="cls-8" x="-32.76" y="-32.76" width="340.66" height="373.41"></rect></g></g></g></g></g></g></g></svg> 